<?xml version="1.0" standalone="no"?>
<!DOCTYPE svg PUBLIC "-//W3C//DTD SVG 20010904//EN"
 "http://www.w3.org/TR/2001/REC-SVG-20010904/DTD/svg10.dtd">
<svg version="1.0" xmlns="http://www.w3.org/2000/svg"
 width="892.084432pt" height="549.072483pt" viewBox="0 0 892.084432 549.072483"
 preserveAspectRatio="xMidYMid meet">
<metadata>
Created by potrace 1.16, written by Peter Selinger 2001-2019
</metadata>
<g transform="translate(-41.937772,655.145303) scale(0.100000,-0.100000)"
fill="#000000" stroke="none">
<path d="M4781 6524 c-12 -15 -21 -38 -21 -53 0 -14 -7 -80 -16 -146 -15 -108
-20 -126 -53 -174 l-36 -53 -3 -364 -3 -364 -158 0 c-155 0 -158 0 -170 23
-17 31 -62 57 -100 57 -26 0 -31 4 -31 24 0 43 -16 70 -85 140 l-66 68 -52 -5
c-44 -4 -56 -10 -83 -41 -25 -29 -38 -36 -69 -36 -33 0 -45 -8 -111 -75 -44
-45 -82 -75 -94 -75 -33 0 -85 -26 -106 -52 l-19 -25 -1489 -7 c-1680 -7
-1541 0 -1579 -85 -20 -45 -20 -58 -15 -1883 5 -1788 6 -1838 25 -1874 10 -20
35 -45 53 -56 34 -17 91 -18 1380 -18 l1344 0 16 -69 c21 -89 41 -118 87 -130
21 -6 51 -24 66 -40 20 -21 41 -32 75 -37 33 -5 58 -17 85 -40 41 -38 87 -45
124 -19 19 13 26 13 65 -5 88 -40 132 -26 229 70 39 38 79 70 88 70 10 0 27
10 39 23 17 18 22 37 24 102 l3 80 815 0 815 0 7 -40 c5 -22 12 -69 17 -105 5
-36 12 -73 16 -83 8 -20 36 -37 60 -37 9 0 37 -22 63 -48 78 -80 169 -99 315
-66 147 34 227 87 293 195 19 33 40 59 45 59 24 0 49 42 49 83 l0 44 503 6
c276 4 862 7 1302 7 892 0 844 -4 892 69 l23 34 -2 1266 c-2 696 -5 1534 -8
1861 -6 654 -2 618 -67 661 -27 18 -87 19 -1595 19 l-1568 0 -40 40 c-32 32
-42 50 -47 87 -5 35 -15 57 -40 82 -24 25 -33 43 -33 67 0 50 -43 94 -100 101
-35 5 -54 15 -82 45 l-38 38 -147 0 c-129 0 -152 -3 -180 -20 -17 -10 -37 -28
-43 -39 -7 -15 -21 -21 -44 -21 -45 0 -98 -38 -113 -80 -7 -20 -12 -94 -12
-173 l-1 -138 -117 3 -118 3 0 563 0 564 -28 24 c-41 35 -108 34 -136 -2z
m4319 -2571 c0 -659 3 -1430 7 -1714 l6 -517 -354 -7 c-195 -4 -544 -5 -776
-4 l-422 4 -31 32 c-20 20 -46 35 -68 38 -58 10 -62 13 -62 44 0 40 -18 77
-47 96 -20 14 -23 23 -23 81 0 74 -19 125 -54 143 -12 7 -30 26 -40 42 -9 16
-26 34 -37 39 -16 9 -19 22 -19 76 0 74 -20 127 -56 151 -16 10 -24 25 -24 43
0 73 -34 112 -108 125 -41 7 -42 8 -42 45 0 36 2 38 39 44 32 5 55 21 117 81
62 60 84 75 108 75 38 0 92 31 100 58 4 10 18 24 31 30 14 7 30 23 37 37 6 14
15 25 19 25 5 0 41 33 81 74 62 62 80 75 117 81 40 7 57 20 154 116 75 75 117
109 133 109 42 0 75 20 140 85 36 36 74 65 85 65 63 0 129 63 129 124 0 20 12
40 42 69 39 38 46 41 117 47 81 7 112 18 134 50 8 12 33 24 60 29 41 7 58 20
140 102 52 52 99 104 105 116 7 12 12 55 12 95 l0 73 -70 69 c-67 66 -73 70
-125 74 -30 2 -66 1 -80 -2 -14 -4 -60 -40 -101 -81 l-75 -75 -76 0 -76 0 -72
-75 c-53 -56 -78 -75 -98 -75 -14 0 -36 -4 -50 -9 -20 -8 -98 -80 -159 -147
-59 -67 -85 -84 -122 -84 -51 0 -91 -40 -101 -101 -8 -52 -65 -119 -101 -119
-44 0 -80 -22 -139 -86 -52 -56 -66 -66 -109 -73 -37 -7 -58 -19 -90 -50 -22
-22 -73 -72 -112 -111 l-70 -70 -61 0 c-34 0 -73 -4 -86 -9 -13 -5 -69 -55
-124 -110 -94 -95 -102 -101 -140 -101 -39 0 -41 1 -51 43 -7 26 -25 55 -47
77 -24 23 -35 43 -35 62 0 40 -23 81 -54 98 -14 7 -26 17 -26 22 0 7 -76 85
-143 146 -4 4 -59 60 -122 124 -109 112 -115 120 -115 159 0 34 -6 47 -35 73
-24 22 -35 41 -35 60 0 43 -14 61 -156 203 -130 130 -161 153 -209 153 -18 0
-89 64 -285 259 l-261 259 -8 119 c-6 101 -11 124 -30 151 -12 18 -27 32 -32
32 -5 0 -9 18 -9 40 l0 40 197 0 197 0 32 -31 c30 -29 32 -35 27 -84 -4 -42
-1 -63 16 -98 33 -69 56 -75 250 -75 91 0 175 4 188 9 30 11 132 115 144 146
5 13 9 49 9 79 l0 54 618 2 c339 2 1032 4 1540 6 l922 2 0 -1197z m-5670 1117
c6 -69 15 -94 49 -124 12 -11 21 -30 21 -43 0 -40 27 -92 58 -110 16 -10 54
-47 86 -83 85 -95 83 -95 281 -95 148 0 174 3 201 19 39 23 64 65 64 105 0 27
4 31 26 31 40 0 88 27 109 63 17 27 21 55 23 170 l4 138 151 -3 152 -3 -4
-184 -4 -185 -98 -100 c-309 -316 -363 -366 -392 -366 -15 0 -37 -5 -48 -10
-10 -6 -112 -106 -227 -222 -114 -116 -225 -228 -246 -249 -35 -33 -40 -42
-43 -95 -6 -95 -10 -104 -41 -104 -32 0 -87 -31 -101 -58 -6 -11 -13 -38 -17
-62 -6 -38 -27 -63 -250 -288 l-243 -246 -36 17 c-20 9 -47 17 -60 17 -25 0
-75 39 -144 113 -28 29 -46 40 -80 44 -39 5 -54 17 -152 114 -102 102 -111
109 -149 109 -37 0 -46 6 -148 109 -103 105 -139 131 -183 131 -35 0 -87 61
-95 111 -7 40 -20 57 -150 186 -78 79 -155 148 -171 154 -15 6 -54 9 -85 7
-53 -3 -59 -1 -92 31 -31 30 -44 35 -95 39 -67 5 -120 -15 -146 -54 -36 -55
-27 -177 17 -212 42 -35 48 -44 48 -73 0 -35 20 -77 49 -101 12 -10 21 -29 21
-43 0 -14 7 -41 15 -61 15 -37 62 -64 110 -64 27 0 28 0 286 -257 105 -103
120 -115 160 -120 38 -5 53 -16 110 -76 61 -63 71 -70 114 -75 45 -5 54 -11
154 -113 103 -104 138 -129 183 -129 23 0 30 -6 145 -122 l26 -27 -35 -39
c-24 -26 -38 -54 -43 -82 -5 -29 -16 -51 -35 -67 -38 -31 -54 -83 -47 -149 5
-48 3 -54 -20 -69 -35 -23 -53 -74 -53 -147 0 -57 -3 -66 -29 -91 -38 -35 -55
-87 -49 -149 5 -45 2 -52 -27 -81 -17 -18 -34 -37 -36 -44 -3 -9 -189 -14
-782 -19 l-777 -7 0 949 c0 522 -3 1299 -7 1726 l-6 778 1299 2 c714 2 1340 3
1389 3 l90 0 5 -65z m1796 -1095 c238 -239 268 -265 304 -271 35 -6 40 -10 40
-33 0 -32 22 -65 80 -120 64 -61 80 -71 117 -71 31 0 33 -2 39 -42 6 -40 25
-62 270 -308 l264 -265 0 -44 c0 -37 -5 -48 -37 -77 -33 -31 -43 -34 -97 -35
-81 0 -126 -17 -152 -56 -38 -57 -102 -103 -141 -103 -27 0 -43 -8 -71 -37
-35 -34 -42 -37 -120 -43 -75 -6 -86 -10 -115 -38 -30 -29 -39 -32 -95 -32
-106 0 -148 -29 -162 -110 -5 -32 -9 -36 -49 -44 -28 -6 -56 -21 -77 -43 -19
-18 -48 -36 -66 -40 -44 -8 -85 -29 -96 -49 -5 -10 -29 -20 -56 -24 l-46 -7
-6 34 c-4 19 -5 281 -2 582 l4 548 34 30 c29 26 34 37 38 89 4 58 -1 75 -38
144 -11 19 -19 50 -20 67 0 39 -81 199 -116 231 -37 33 -85 29 -130 -10 -20
-18 -43 -47 -50 -64 -11 -25 -13 -179 -14 -745 0 -393 -3 -760 -6 -816 -8
-115 -17 -127 -73 -99 -17 9 -44 16 -60 16 -20 0 -34 7 -41 20 -14 26 -61 50
-99 50 -19 0 -36 8 -48 23 -35 44 -64 57 -129 57 -82 0 -94 6 -94 42 0 28 -27
88 -40 88 -4 0 -44 38 -91 84 -75 74 -89 84 -131 90 -33 5 -51 14 -59 27 -13
25 -67 49 -108 49 -22 0 -35 8 -47 26 -22 32 -64 54 -107 54 -25 0 -37 6 -46
24 -16 29 -51 46 -95 46 -33 0 -72 29 -65 48 2 6 26 33 52 61 37 40 55 51 78
51 17 0 40 5 51 11 21 11 634 623 669 668 11 13 19 36 19 51 0 29 15 40 53 40
15 0 103 82 289 270 l267 270 81 0 82 0 264 -265z m-2156 -1525 c14 -26 61
-50 97 -50 20 0 43 -13 72 -40 23 -22 52 -41 64 -42 12 -1 29 -2 38 -3 32 -2
86 -60 93 -101 15 -80 61 -124 128 -124 12 0 39 -16 59 -36 27 -26 48 -37 80
-41 30 -4 54 -15 76 -35 22 -22 45 -32 77 -35 33 -4 49 -12 61 -29 32 -49 71
-59 213 -54 70 2 73 1 111 -33 26 -23 53 -37 82 -42 25 -4 50 -16 57 -26 19
-28 66 -49 107 -49 19 0 35 -4 35 -10 0 -6 -97 -10 -271 -10 l-271 0 -71 75
c-40 41 -85 79 -100 85 -16 5 -64 10 -109 10 -89 0 -139 -17 -165 -56 -11 -18
-25 -24 -50 -24 -44 0 -82 -20 -111 -59 l-23 -31 -347 0 -348 0 7 85 c6 76 10
88 38 120 22 25 31 46 31 70 0 26 9 45 35 74 41 45 55 85 55 153 0 42 3 48 20
48 66 0 130 63 130 128 0 25 9 43 33 66 38 39 53 43 67 16z m3496 -37 c13 -16
35 -39 49 -53 21 -21 25 -35 25 -83 0 -68 20 -124 55 -153 22 -17 26 -31 32
-104 6 -76 9 -87 40 -120 22 -26 33 -47 33 -68 0 -45 50 -98 109 -116 43 -14
30 -15 -192 -15 l-238 -1 -73 69 c-80 75 -116 92 -247 110 -126 17 -202 -12
-298 -114 l-62 -67 -415 -5 c-282 -4 -414 -3 -414 4 0 17 36 22 114 16 82 -6
133 10 161 53 9 15 25 24 41 24 39 0 91 26 110 56 18 27 19 27 106 20 113 -8
139 -2 192 45 32 28 53 39 76 39 23 0 41 9 66 34 26 26 44 35 81 39 38 4 54
12 79 40 25 27 41 35 80 40 64 7 104 48 104 107 0 36 2 40 26 40 38 0 62 15
140 91 60 58 77 69 106 69 19 0 43 7 54 15 26 20 31 19 60 -12z"/>
<path d="M7974 2895 c-26 -28 -40 -35 -69 -35 -32 0 -45 -9 -105 -69 -38 -38
-72 -80 -75 -93 -4 -14 -5 -104 -3 -200 l3 -175 38 -42 c34 -38 37 -45 37
-104 0 -34 6 -73 13 -87 17 -34 74 -70 112 -70 20 0 39 -8 54 -24 40 -43 67
-48 254 -44 l176 3 38 38 c31 29 47 37 76 37 26 0 46 8 69 29 30 26 32 33 37
113 6 80 8 87 39 116 l32 30 0 152 c0 156 -4 174 -45 220 -13 14 -25 44 -28
69 -7 60 -48 100 -108 108 -28 4 -56 16 -77 34 l-33 29 -201 0 -201 0 -33 -35z"/>
<path d="M1224 2772 c-58 -42 -224 -212 -235 -240 -10 -27 -12 -373 -3 -422 5
-24 35 -59 111 -134 58 -55 112 -105 121 -110 9 -6 89 -11 177 -12 138 -1 166
1 201 17 22 11 46 30 53 43 7 13 23 29 35 36 53 28 56 47 56 331 0 300 0 300
-89 400 -59 66 -73 72 -211 95 -178 29 -171 29 -216 -4z"/>
</g>
</svg>
