<?xml version="1.0" standalone="no"?>
<!DOCTYPE svg PUBLIC "-//W3C//DTD SVG 20010904//EN"
 "http://www.w3.org/TR/2001/REC-SVG-20010904/DTD/svg10.dtd">
<svg version="1.0" xmlns="http://www.w3.org/2000/svg"
 width="1095.133373pt" height="359.151970pt" viewBox="0 0 1095.133373 359.151970"
 preserveAspectRatio="xMidYMid meet">
<metadata>
Created by potrace 1.16, written by Peter Selinger 2001-2019
</metadata>
<g transform="translate(-88.431779,493.651970) scale(0.100000,-0.100000)"
fill="#000000" stroke="none">
<path d="M3618 4933 c-26 -4 -84 -32 -136 -64 -31 -19 -27 -50 10 -74 57 -36
58 -49 9 -99 -25 -25 -58 -52 -75 -61 -17 -8 -42 -24 -56 -34 -14 -10 -51 -35
-83 -56 -80 -51 -99 -104 -52 -150 16 -17 35 -25 58 -25 51 0 60 17 48 85 -14
77 2 120 52 129 19 3 42 15 52 26 10 11 23 20 28 20 15 0 96 40 103 51 3 5 16
9 29 9 13 0 30 6 37 13 7 6 26 19 41 27 48 24 87 76 87 115 0 66 -64 103 -152
88z"/>
<path d="M5345 4310 c-11 -5 -33 -9 -49 -9 -15 -1 -50 -12 -78 -26 -27 -14
-54 -25 -58 -25 -5 0 -20 -10 -34 -23 -13 -12 -37 -29 -53 -37 -38 -20 -66
-44 -142 -122 -74 -75 -131 -142 -131 -153 0 -4 -11 -18 -25 -31 -14 -13 -25
-32 -25 -44 0 -11 -4 -20 -9 -20 -6 0 -24 -29 -41 -64 -54 -110 -56 -103 -62
177 -6 270 -14 313 -62 335 -21 9 -93 -11 -106 -29 -3 -4 -59 -36 -125 -70
-135 -69 -145 -76 -145 -95 0 -21 13 -17 66 19 27 18 71 44 98 57 l49 23 18
-24 c18 -23 19 -60 19 -762 0 -804 1 -786 -56 -807 -13 -5 -58 -9 -99 -9 -79
1 -95 -4 -95 -27 0 -12 49 -14 329 -14 181 0 336 3 345 6 26 10 18 32 -14 39
-17 4 -49 4 -71 0 -51 -9 -89 7 -120 48 l-24 32 0 448 c0 328 3 450 12 455 6
4 14 25 19 47 8 45 49 141 64 150 6 3 10 13 10 22 0 17 125 145 180 184 58 41
186 100 270 123 30 8 94 20 142 26 97 12 178 41 178 65 0 8 5 15 10 15 17 0
11 51 -11 81 -11 16 -29 29 -39 29 -10 0 -22 5 -25 10 -7 12 -82 12 -110 0z"/>
<path d="M6480 4316 c-3 -2 -50 -7 -105 -11 -101 -7 -200 -28 -210 -46 -4 -5
-17 -9 -31 -9 -13 0 -24 -3 -24 -7 0 -5 -10 -13 -23 -19 -73 -37 -94 -52 -147
-105 -32 -32 -64 -72 -71 -88 -8 -17 -17 -31 -20 -31 -14 0 -30 -110 -21 -144
19 -68 94 -110 155 -87 15 6 27 17 27 25 0 7 6 19 14 25 8 7 15 46 20 106 10
142 42 206 141 280 22 17 42 33 45 36 11 13 135 50 189 56 130 13 293 -51 367
-144 63 -77 66 -235 8 -325 -13 -21 -24 -42 -24 -47 0 -15 -101 -97 -175 -141
-22 -13 -42 -26 -45 -29 -3 -4 -45 -19 -95 -34 -49 -16 -98 -33 -107 -38 -10
-5 -62 -23 -115 -40 -156 -49 -247 -92 -337 -157 -232 -169 -300 -444 -161
-648 26 -38 121 -124 137 -124 6 0 19 -7 29 -16 45 -40 253 -57 379 -30 64 14
155 55 235 107 41 27 187 156 193 171 2 5 16 21 30 37 15 15 41 47 57 70 l30
43 2 -44 c4 -60 34 -207 44 -214 5 -3 9 -15 9 -28 0 -28 51 -77 109 -105 47
-22 115 -28 126 -11 3 6 14 10 24 10 23 0 81 44 102 78 21 33 37 118 20 108
-6 -4 -11 -13 -11 -19 0 -7 -14 -29 -30 -49 -51 -62 -141 -61 -170 0 -9 19
-16 115 -21 307 -5 154 -10 309 -11 345 l-3 65 -17 -35 c-20 -40 -64 -119 -96
-170 -12 -19 -22 -43 -22 -52 0 -10 -4 -18 -9 -18 -5 0 -12 -8 -15 -17 -9 -22
-40 -79 -54 -95 -5 -7 -22 -37 -37 -65 -15 -29 -30 -53 -35 -53 -4 0 -20 -21
-36 -46 -24 -37 -95 -107 -192 -185 -7 -6 -27 -15 -45 -21 -17 -5 -46 -16 -62
-23 -61 -27 -159 -39 -221 -26 -63 12 -145 50 -182 85 -94 85 -140 242 -112
379 15 72 70 182 106 209 13 11 24 24 24 29 0 12 75 79 108 96 15 8 35 22 45
31 10 9 32 21 50 28 103 39 204 74 215 74 8 0 28 6 45 14 63 28 166 66 179 66
8 0 19 5 26 12 14 14 136 83 175 99 15 6 27 16 27 23 0 6 12 23 28 37 84 80
98 112 96 234 0 72 -21 131 -49 141 -8 3 -17 14 -20 25 -4 10 -11 19 -18 19
-6 0 -23 12 -38 26 -43 41 -134 74 -234 84 -49 5 -106 12 -125 15 -20 3 -38 4
-40 1z"/>
<path d="M10950 4310 c-14 -4 -43 -8 -66 -9 -113 -3 -333 -119 -440 -232 -60
-64 -144 -176 -144 -193 0 -6 -11 -27 -24 -46 -13 -19 -27 -51 -31 -70 -4 -19
-13 -45 -20 -56 -19 -30 -45 -214 -45 -315 0 -243 109 -513 260 -646 24 -21
55 -49 70 -63 15 -14 40 -32 56 -40 16 -8 49 -27 74 -42 25 -14 59 -30 75 -34
17 -3 37 -12 45 -19 22 -17 160 -35 270 -35 103 0 242 22 248 39 2 6 13 11 25
11 12 0 47 15 77 33 30 17 68 39 85 47 16 8 58 42 93 75 35 33 70 64 78 68 8
4 14 15 14 22 0 8 4 15 8 15 8 0 102 152 102 165 0 4 6 21 14 38 39 85 46 118
57 256 12 165 0 385 -25 456 -36 100 -100 220 -151 284 -42 52 -149 152 -176
164 -8 4 -32 18 -54 31 -58 37 -124 66 -170 76 -128 29 -252 37 -305 20z m175
-24 c87 -23 185 -76 244 -130 61 -57 101 -101 101 -113 0 -6 3 -13 8 -15 10
-4 76 -117 90 -153 17 -45 38 -139 53 -235 18 -110 18 -403 1 -495 -18 -93
-61 -236 -77 -255 -7 -8 -22 -33 -34 -55 -51 -97 -226 -251 -308 -271 -15 -4
-38 -13 -52 -20 -36 -19 -239 -19 -266 0 -11 7 -36 16 -56 20 -20 3 -54 19
-75 34 -22 15 -51 33 -66 41 -15 8 -38 28 -50 45 -13 16 -31 38 -41 48 -25 27
-87 125 -87 139 0 7 -6 20 -13 28 -27 32 -71 186 -89 316 -15 108 -4 448 16
515 49 160 61 191 73 201 7 7 13 19 13 28 0 20 137 191 154 191 6 0 17 9 24
20 7 11 17 20 23 20 6 0 30 13 53 29 24 17 56 33 72 37 16 4 34 11 40 15 35
28 172 36 249 15z"/>
<path d="M8370 4277 c-70 -22 -149 -67 -196 -112 -12 -11 -42 -40 -67 -63 -26
-24 -47 -50 -47 -57 0 -7 -4 -15 -9 -17 -4 -1 -20 -22 -35 -45 -34 -56 -10
-60 31 -5 15 20 42 51 59 68 17 17 35 38 40 45 17 28 99 86 154 109 118 51
269 19 323 -68 52 -82 52 -88 52 -803 0 -714 1 -696 -50 -742 -17 -15 -31 -17
-88 -12 -54 5 -74 3 -93 -10 -14 -9 -22 -20 -19 -25 4 -6 139 -10 341 -10 292
0 335 2 341 15 9 25 -2 28 -85 30 -42 0 -86 6 -98 12 -51 29 -49 0 -49 692 l0
646 -23 60 c-27 73 -54 125 -64 125 -5 0 -8 6 -8 14 0 8 -15 30 -33 48 -118
120 -229 151 -377 105z"/>
<path d="M9275 4277 c-33 -13 -83 -39 -112 -58 -59 -40 -163 -135 -163 -150 0
-5 -8 -17 -17 -27 -21 -20 -53 -68 -53 -78 0 -3 44 37 97 91 129 127 210 170
322 170 63 0 83 -4 116 -25 50 -30 59 -41 93 -110 l26 -55 7 -620 c3 -341 9
-631 13 -645 4 -14 12 -45 19 -70 12 -50 88 -140 118 -140 10 0 21 -4 24 -10
18 -30 145 6 198 57 31 29 39 42 71 115 19 43 20 48 4 48 -16 -1 -42 -36 -53
-70 -4 -14 -19 -36 -33 -49 -21 -19 -33 -22 -64 -18 -53 7 -63 18 -89 95 -22
66 -22 69 -16 567 7 582 1 660 -59 780 -40 82 -115 159 -189 195 -72 35 -179
38 -260 7z m465 -667 c0 -5 -4 -10 -10 -10 -5 0 -10 5 -10 10 0 6 5 10 10 10
6 0 10 -4 10 -10z"/>
<path d="M7820 4256 c-136 -69 -175 -91 -180 -97 -3 -3 -21 -11 -42 -18 -42
-14 -92 -56 -83 -71 7 -12 34 0 60 26 9 9 46 29 83 45 l67 27 18 -20 c16 -19
17 -70 17 -760 0 -621 -2 -743 -14 -767 -19 -36 -68 -50 -150 -44 -56 5 -67 3
-72 -12 -4 -10 -1 -21 7 -26 16 -10 520 -12 622 -2 37 3 67 9 67 13 0 15 -63
30 -122 30 -68 0 -122 19 -138 50 -9 17 -11 200 -9 719 3 642 2 704 -15 796
-18 95 -36 136 -60 134 -6 0 -31 -10 -56 -23z"/>
<path d="M2980 4211 c-58 -20 -116 -43 -130 -52 -14 -10 -35 -20 -47 -23 -12
-4 -35 -22 -52 -41 -17 -19 -34 -35 -38 -35 -12 0 -60 -79 -88 -143 -22 -51
-21 -138 2 -177 22 -37 81 -57 115 -39 43 23 56 51 63 134 9 110 44 203 98
263 64 70 208 122 337 122 146 0 306 -71 331 -147 6 -21 17 -41 23 -45 6 -4
12 -41 14 -82 3 -60 0 -83 -15 -113 -10 -21 -25 -57 -33 -80 -7 -24 -17 -43
-21 -43 -4 0 -29 -23 -56 -50 -26 -28 -65 -59 -85 -70 -55 -28 -81 -44 -98
-56 -18 -14 -263 -94 -288 -94 -9 -1 -35 -9 -57 -20 -22 -11 -48 -19 -57 -20
-10 0 -18 -4 -18 -10 0 -5 -8 -10 -17 -10 -32 0 -158 -70 -206 -115 -27 -25
-55 -45 -63 -45 -8 0 -14 -4 -14 -8 0 -7 -23 -39 -62 -85 -10 -11 -18 -25 -18
-30 0 -6 -6 -18 -14 -26 -7 -9 -24 -47 -36 -85 -18 -55 -22 -84 -18 -150 4
-70 10 -91 42 -151 21 -38 53 -84 72 -101 19 -18 34 -37 34 -43 0 -6 5 -11 11
-11 6 0 36 -15 67 -33 71 -41 140 -57 247 -57 107 0 172 14 262 56 39 19 76
34 82 34 5 0 14 6 18 13 4 7 21 21 37 31 30 19 109 89 135 120 9 11 35 39 59
63 24 23 53 62 66 85 37 69 46 61 46 -41 0 -99 16 -160 59 -227 59 -93 174
-122 271 -67 57 32 113 108 108 148 -3 26 -4 25 -40 -22 -48 -63 -95 -81 -148
-55 -54 26 -58 58 -59 430 -1 311 -6 363 -30 299 -5 -12 -22 -45 -38 -72 -16
-28 -37 -70 -48 -95 -11 -25 -22 -47 -26 -50 -3 -3 -18 -30 -33 -60 -59 -119
-112 -203 -166 -263 -61 -70 -127 -137 -134 -137 -4 0 -22 -11 -40 -25 -18
-14 -48 -30 -67 -37 -19 -6 -37 -15 -40 -20 -20 -30 -285 -32 -309 -3 -6 8
-25 17 -41 20 -16 4 -29 11 -29 16 0 5 -6 9 -14 9 -19 0 -87 93 -117 159 -20
46 -24 69 -24 150 1 81 5 105 27 157 38 86 87 156 138 199 25 20 52 44 60 53
9 9 27 23 40 31 53 31 198 101 209 101 5 0 30 6 53 14 24 8 84 26 133 40 50
15 104 33 120 41 17 7 57 26 89 41 33 15 73 39 90 53 16 14 46 41 66 58 21 18
52 60 69 93 32 59 33 65 29 160 l-3 98 -41 48 c-57 68 -77 79 -204 119 -47 15
-95 31 -108 36 -13 5 -91 9 -175 8 -148 -1 -155 -2 -257 -38z"/>
<path d="M1530 4193 c-47 -8 -92 -21 -100 -27 -8 -7 -30 -18 -48 -24 -19 -7
-49 -24 -66 -39 -18 -16 -47 -39 -64 -53 -17 -14 -31 -30 -32 -37 0 -6 -8 -18
-18 -25 -25 -18 -78 -89 -94 -124 -7 -16 -20 -36 -28 -44 -8 -8 -22 -35 -30
-60 -8 -25 -22 -53 -31 -63 -9 -10 -20 -38 -23 -62 -4 -23 -16 -60 -26 -81
-11 -21 -20 -52 -20 -69 0 -17 -4 -35 -8 -40 -5 -6 -15 -48 -22 -95 -7 -47
-18 -91 -24 -99 -16 -21 -15 -689 1 -722 7 -13 19 -62 27 -109 24 -132 34
-179 50 -213 8 -18 18 -52 21 -76 4 -25 15 -58 25 -75 9 -17 23 -49 30 -71 13
-42 41 -109 67 -160 9 -16 25 -48 36 -70 11 -22 28 -49 37 -60 10 -11 23 -37
30 -57 6 -21 15 -38 19 -38 4 0 32 -43 61 -95 30 -52 67 -109 82 -127 27 -32
30 -33 106 -33 74 0 79 1 109 32 38 39 67 121 58 163 -5 21 -19 39 -45 55 -21
13 -41 29 -45 35 -3 5 -13 10 -22 10 -9 0 -31 11 -49 25 -18 14 -37 25 -43 25
-6 0 -11 5 -11 10 0 6 -11 10 -24 10 -12 0 -35 10 -49 23 -44 38 -99 82 -117
92 -28 16 -140 157 -146 185 -4 14 -13 30 -20 36 -17 13 -52 156 -60 245 -9
92 33 325 61 341 7 4 15 22 19 40 3 18 31 66 61 106 30 40 55 76 55 80 0 4 32
30 71 57 38 28 78 57 87 65 32 28 233 88 317 94 141 11 300 56 379 108 47 31
98 93 131 158 83 164 86 373 9 536 -31 67 -106 174 -127 183 -5 2 -24 16 -42
32 -18 16 -50 36 -71 45 -22 9 -46 22 -54 28 -19 16 -191 46 -256 45 -27 0
-87 -8 -134 -16z m277 -40 c36 -14 75 -35 85 -45 10 -10 23 -18 28 -18 6 0 10
-5 10 -11 0 -7 10 -21 23 -33 38 -36 84 -153 97 -251 16 -116 -5 -283 -44
-362 -14 -28 -26 -54 -26 -59 0 -4 -11 -22 -25 -40 -14 -18 -25 -36 -25 -41 0
-8 -41 -46 -109 -100 -43 -35 -126 -73 -158 -73 -13 0 -43 -4 -66 -9 -23 -5
-78 -17 -122 -26 -44 -9 -107 -30 -140 -46 -34 -16 -65 -29 -71 -29 -13 0
-101 -67 -131 -100 -13 -14 -26 -36 -29 -50 -4 -14 -12 -32 -19 -40 -7 -8 -20
-51 -30 -95 -9 -43 -25 -97 -35 -120 -10 -22 -21 -48 -24 -57 -3 -10 -12 -18
-20 -18 -15 0 -26 30 -26 75 0 17 -5 36 -11 42 -21 21 4 489 32 588 6 22 16
76 22 120 7 44 17 89 23 100 6 11 22 54 34 95 13 41 29 82 37 91 7 8 13 21 13
29 0 7 20 49 44 94 24 44 52 97 62 116 24 44 149 170 189 190 17 8 42 23 56
33 41 29 188 75 241 76 30 1 73 -9 115 -26z"/>
<path d="M3631 1966 c-17 -20 -6 -36 25 -36 21 0 25 4 22 22 -4 27 -30 35 -47
14z"/>
<path d="M2750 1968 c0 -6 27 -74 38 -98 6 -14 30 -70 52 -125 22 -55 50 -122
62 -150 11 -27 24 -59 29 -70 38 -96 49 -115 66 -115 22 0 39 26 64 98 10 30
23 60 28 66 4 6 16 36 26 66 10 30 26 71 36 90 11 19 19 39 19 43 0 9 17 50
51 123 24 52 25 77 2 72 -10 -2 -26 -27 -40 -63 -13 -33 -30 -73 -37 -90 -7
-16 -19 -46 -26 -65 -15 -40 -54 -136 -81 -196 -10 -23 -21 -54 -25 -68 -7
-28 -24 -36 -24 -11 0 9 -11 38 -25 65 -14 27 -25 54 -25 60 0 5 -13 39 -30
73 -16 35 -30 70 -30 77 0 8 -9 32 -19 54 -18 39 -33 75 -59 139 -7 17 -19 27
-32 27 -11 0 -20 -1 -20 -2z"/>
<path d="M7297 1963 c-4 -3 -7 -129 -7 -280 0 -266 1 -273 20 -273 19 0 20 8
22 242 l3 241 71 -89 c38 -49 83 -106 98 -126 16 -21 32 -38 36 -38 6 0 67 74
190 230 l20 25 0 -242 c0 -236 1 -243 20 -243 20 0 20 7 20 280 0 260 -1 280
-17 280 -10 0 -38 -27 -63 -62 -24 -34 -49 -66 -55 -72 -6 -6 -32 -39 -59 -73
-32 -41 -53 -60 -61 -55 -7 4 -49 54 -94 112 -44 58 -89 115 -98 127 -18 23
-34 28 -46 16z"/>
<path d="M4898 1873 l-3 -58 -40 -5 c-27 -3 -41 -10 -43 -22 -3 -13 6 -17 40
-20 l43 -3 5 -158 c5 -152 6 -160 29 -178 32 -26 101 -26 101 -1 0 14 -8 18
-36 19 -20 1 -41 6 -48 13 -7 7 -11 61 -11 158 l0 147 50 5 c36 4 50 9 50 20
0 11 -14 16 -50 20 l-50 5 -3 58 c-2 41 -7 57 -17 57 -10 0 -15 -16 -17 -57z"/>
<path d="M4233 1810 c-97 -23 -168 -143 -143 -242 17 -66 38 -101 83 -133 35
-25 50 -29 107 -29 55 -1 73 3 104 24 34 23 76 83 76 110 0 23 -27 7 -50 -31
-30 -49 -68 -71 -124 -71 -112 -2 -179 90 -156 213 28 149 233 178 290 42 10
-23 40 -32 40 -13 0 44 -69 113 -128 130 -42 11 -53 11 -99 0z"/>
<path d="M5539 1811 c-133 -41 -191 -200 -115 -319 38 -61 87 -86 167 -86 58
0 73 4 110 29 51 36 89 110 89 175 0 132 -131 237 -251 201z m123 -47 c18 -9
44 -30 58 -47 22 -27 25 -41 25 -107 0 -67 -3 -79 -29 -112 -50 -67 -157 -81
-225 -30 -87 64 -77 242 16 291 46 24 111 27 155 5z"/>
<path d="M8379 1811 c-65 -21 -104 -53 -130 -105 -26 -53 -25 -144 1 -195 72
-142 274 -145 350 -6 19 35 22 53 19 117 -4 67 -8 81 -35 114 -17 21 -44 46
-61 55 -38 21 -109 31 -144 20z m125 -51 c56 -26 81 -75 81 -154 0 -46 -6 -70
-23 -97 -54 -88 -196 -95 -261 -14 -49 63 -52 142 -7 213 44 70 131 91 210 52z"/>
<path d="M9715 1811 c-48 -12 -71 -28 -106 -72 -28 -36 -33 -50 -37 -114 -4
-62 -1 -81 18 -120 51 -105 195 -137 286 -64 31 24 64 69 64 85 0 2 -9 4 -19
4 -12 0 -28 -13 -38 -31 -21 -36 -70 -59 -123 -59 -79 0 -138 48 -147 120 l-6
40 172 0 171 0 0 30 c0 116 -122 210 -235 181z m113 -46 c29 -12 45 -27 61
-61 36 -72 33 -74 -134 -74 -156 0 -156 0 -136 54 32 83 120 116 209 81z"/>
<path d="M10484 1810 c-17 -5 -39 -19 -49 -30 -23 -26 -33 -25 -37 3 -2 12
-10 22 -18 22 -13 0 -15 -28 -15 -195 0 -177 2 -195 18 -198 16 -3 17 9 17
141 0 116 3 147 15 157 8 7 15 18 15 24 0 20 56 46 100 46 52 0 98 -23 110
-56 6 -14 10 -90 10 -170 0 -139 1 -144 21 -144 20 0 21 3 17 158 -3 146 -5
160 -26 187 -12 16 -31 35 -42 42 -25 18 -98 24 -136 13z"/>
<path d="M11247 1807 c-114 -37 -165 -160 -121 -290 12 -35 26 -53 60 -76 101
-66 206 -49 279 47 36 47 37 48 33 130 -1 45 -8 86 -13 90 -6 4 -18 19 -28 34
-35 56 -139 88 -210 65z m130 -43 c56 -27 83 -77 83 -152 0 -81 -26 -133 -81
-157 -77 -35 -155 -15 -206 51 -23 31 -28 47 -28 99 0 51 5 69 28 103 44 67
130 91 204 56z"/>
<path d="M3634 1797 c-2 -7 -3 -96 -2 -197 3 -167 5 -185 21 -188 16 -3 17 11
17 197 0 174 -2 201 -15 201 -9 0 -18 -6 -21 -13z"/>
<path d="M6207 1803 c-4 -3 -7 -93 -7 -200 0 -186 1 -193 20 -193 19 0 20 7
20 130 0 109 3 137 19 168 20 39 55 62 95 62 23 0 41 22 29 34 -19 19 -79 1
-120 -37 l-23 -20 0 31 c0 30 -16 42 -33 25z"/>
<path d="M9047 1803 c-4 -3 -7 -93 -7 -200 0 -158 3 -193 14 -193 11 0 15 28
18 133 5 172 25 212 121 232 16 3 27 12 27 21 0 22 -64 12 -102 -16 -36 -26
-48 -25 -48 5 0 24 -10 32 -23 18z"/>
</g>
</svg>
